<?xml version="1.0" encoding="UTF-8" standalone="no"?>
<!DOCTYPE svg PUBLIC "-//W3C//DTD SVG 1.1//EN"
 "http://www.w3.org/Graphics/SVG/1.1/DTD/svg11.dtd">
<!-- Generated by graphviz version 5.0.0 (20220707.1540)
 -->
<!-- Title: dependencies Pages: 1 -->
<svg width="1024pt" height="174pt"
 viewBox="0.00 0.00 1024.00 173.80" xmlns="http://www.w3.org/2000/svg" xmlns:xlink="http://www.w3.org/1999/xlink">
<g id="graph0" class="graph" transform="scale(1 1) rotate(0) translate(4 169.8)">
<title>dependencies</title>
<polygon fill="white" stroke="transparent" points="-4,4 -4,-169.8 1020,-169.8 1020,4 -4,4"/>
<text text-anchor="middle" x="508" y="-8.2" font-family="sans-serif" font-size="14.00">dependencies</text>
<g id="clust1" class="cluster">
<title>cluster_CommandsModule</title>
<polygon fill="none" stroke="black" stroke-dasharray="1,5" points="8,-32.8 8,-157.8 1008,-157.8 1008,-32.8 8,-32.8"/>
</g>
<g id="clust3" class="cluster">
<title>cluster_CommandsModule_imports</title>
<polygon fill="none" stroke="black" points="766,-40.8 766,-92.8 1000,-92.8 1000,-40.8 766,-40.8"/>
</g>
<g id="clust6" class="cluster">
<title>cluster_CommandsModule_providers</title>
<polygon fill="none" stroke="black" points="16,-40.8 16,-92.8 758,-92.8 758,-40.8 16,-40.8"/>
</g>
<!-- EntityModule -->
<g id="node1" class="node">
<title>EntityModule</title>
<polygon fill="#8dd3c7" stroke="black" points="991.77,-84.8 988.77,-88.8 967.77,-88.8 964.77,-84.8 898.23,-84.8 898.23,-48.8 991.77,-48.8 991.77,-84.8"/>
<text text-anchor="middle" x="945" y="-62.6" font-family="Times,serif" font-size="14.00">EntityModule</text>
</g>
<!-- CommandsModule -->
<g id="node3" class="node">
<title>CommandsModule</title>
<polygon fill="#8dd3c7" stroke="black" points="617.83,-149.8 614.83,-153.8 593.83,-153.8 590.83,-149.8 494.17,-149.8 494.17,-113.8 617.83,-113.8 617.83,-149.8"/>
<text text-anchor="middle" x="556" y="-127.6" font-family="Times,serif" font-size="14.00">CommandsModule</text>
</g>
<!-- EntityModule&#45;&gt;CommandsModule -->
<g id="edge1" class="edge">
<title>EntityModule&#45;&gt;CommandsModule</title>
<path fill="none" stroke="black" d="M945,-85.08C945,-106.12 945,-137.8 945,-137.8 945,-137.8 628.07,-137.8 628.07,-137.8"/>
<polygon fill="black" stroke="black" points="628.07,-134.3 618.07,-137.8 628.07,-141.3 628.07,-134.3"/>
</g>
<!-- ServicesModule -->
<g id="node2" class="node">
<title>ServicesModule</title>
<polygon fill="#8dd3c7" stroke="black" points="880.48,-84.8 877.48,-88.8 856.48,-88.8 853.48,-84.8 773.52,-84.8 773.52,-48.8 880.48,-48.8 880.48,-84.8"/>
<text text-anchor="middle" x="827" y="-62.6" font-family="Times,serif" font-size="14.00">ServicesModule</text>
</g>
<!-- ServicesModule&#45;&gt;CommandsModule -->
<g id="edge2" class="edge">
<title>ServicesModule&#45;&gt;CommandsModule</title>
<path fill="none" stroke="black" d="M827,-84.82C827,-102.17 827,-125.8 827,-125.8 827,-125.8 627.83,-125.8 627.83,-125.8"/>
<polygon fill="black" stroke="black" points="627.83,-122.3 617.83,-125.8 627.83,-129.3 627.83,-122.3"/>
</g>
<!-- CogView2Command -->
<g id="node4" class="node">
<title>CogView2Command</title>
<ellipse fill="#fdb462" stroke="black" cx="657" cy="-66.8" rx="93.23" ry="18"/>
<text text-anchor="middle" x="657" y="-62.6" font-family="Times,serif" font-size="14.00">CogView2Command</text>
</g>
<!-- CogView2Command&#45;&gt;CommandsModule -->
<g id="edge3" class="edge">
<title>CogView2Command&#45;&gt;CommandsModule</title>
<path fill="none" stroke="black" d="M590.77,-79.64C590.77,-79.64 590.77,-103.32 590.77,-103.32"/>
<polygon fill="black" stroke="black" points="587.27,-103.32 590.77,-113.32 594.27,-103.32 587.27,-103.32"/>
</g>
<!-- DalleMiniCommand -->
<g id="node5" class="node">
<title>DalleMiniCommand</title>
<ellipse fill="#fdb462" stroke="black" cx="455" cy="-66.8" rx="90.93" ry="18"/>
<text text-anchor="middle" x="455" y="-62.6" font-family="Times,serif" font-size="14.00">DalleMiniCommand</text>
</g>
<!-- DalleMiniCommand&#45;&gt;CommandsModule -->
<g id="edge4" class="edge">
<title>DalleMiniCommand&#45;&gt;CommandsModule</title>
<path fill="none" stroke="black" d="M520.15,-79.64C520.15,-79.64 520.15,-103.32 520.15,-103.32"/>
<polygon fill="black" stroke="black" points="516.65,-103.32 520.15,-113.32 523.65,-103.32 516.65,-103.32"/>
</g>
<!-- HelpCommand -->
<g id="node6" class="node">
<title>HelpCommand</title>
<ellipse fill="#fdb462" stroke="black" cx="276" cy="-66.8" rx="70.09" ry="18"/>
<text text-anchor="middle" x="276" y="-62.6" font-family="Times,serif" font-size="14.00">HelpCommand</text>
</g>
<!-- HelpCommand&#45;&gt;CommandsModule -->
<g id="edge5" class="edge">
<title>HelpCommand&#45;&gt;CommandsModule</title>
<path fill="none" stroke="black" d="M276,-84.82C276,-102.17 276,-125.8 276,-125.8 276,-125.8 484.21,-125.8 484.21,-125.8"/>
<polygon fill="black" stroke="black" points="484.21,-129.3 494.21,-125.8 484.21,-122.3 484.21,-129.3"/>
</g>
<!-- OpenAiCommand -->
<g id="node7" class="node">
<title>OpenAiCommand</title>
<ellipse fill="#fdb462" stroke="black" cx="106" cy="-66.8" rx="81.69" ry="18"/>
<text text-anchor="middle" x="106" y="-62.6" font-family="Times,serif" font-size="14.00">OpenAiCommand</text>
</g>
<!-- OpenAiCommand&#45;&gt;CommandsModule -->
<g id="edge6" class="edge">
<title>OpenAiCommand&#45;&gt;CommandsModule</title>
<path fill="none" stroke="black" d="M106,-85.08C106,-106.12 106,-137.8 106,-137.8 106,-137.8 483.9,-137.8 483.9,-137.8"/>
<polygon fill="black" stroke="black" points="483.9,-141.3 493.9,-137.8 483.9,-134.3 483.9,-141.3"/>
</g>
</g>
</svg>
