<?xml version="1.0" encoding="UTF-8" standalone="no"?>
<!DOCTYPE svg PUBLIC "-//W3C//DTD SVG 1.1//EN"
 "http://www.w3.org/Graphics/SVG/1.1/DTD/svg11.dtd">
<!-- Generated by graphviz version 5.0.0 (20220707.1540)
 -->
<!-- Title: dependencies Pages: 1 -->
<svg width="1199pt" height="247pt"
 viewBox="0.00 0.00 1199.00 246.80" xmlns="http://www.w3.org/2000/svg" xmlns:xlink="http://www.w3.org/1999/xlink">
<g id="graph0" class="graph" transform="scale(1 1) rotate(0) translate(4 242.8)">
<title>dependencies</title>
<polygon fill="white" stroke="transparent" points="-4,4 -4,-242.8 1195,-242.8 1195,4 -4,4"/>
<text text-anchor="middle" x="595.5" y="-8.2" font-family="sans-serif" font-size="14.00">dependencies</text>
<g id="clust1" class="cluster">
<title>cluster_ServicesModule</title>
<polygon fill="none" stroke="black" stroke-dasharray="1,5" points="8,-32.8 8,-230.8 1183,-230.8 1183,-32.8 8,-32.8"/>
</g>
<g id="clust6" class="cluster">
<title>cluster_ServicesModule_providers</title>
<polygon fill="none" stroke="black" points="376,-40.8 376,-92.8 1175,-92.8 1175,-40.8 376,-40.8"/>
</g>
<g id="clust4" class="cluster">
<title>cluster_ServicesModule_exports</title>
<polygon fill="none" stroke="black" points="208,-170.8 208,-222.8 828,-222.8 828,-170.8 208,-170.8"/>
</g>
<g id="clust3" class="cluster">
<title>cluster_ServicesModule_imports</title>
<polygon fill="none" stroke="black" points="16,-40.8 16,-92.8 368,-92.8 368,-40.8 16,-40.8"/>
</g>
<!-- EntityModule -->
<g id="node1" class="node">
<title>EntityModule</title>
<polygon fill="#8dd3c7" stroke="black" points="359.77,-84.8 356.77,-88.8 335.77,-88.8 332.77,-84.8 266.23,-84.8 266.23,-48.8 359.77,-48.8 359.77,-84.8"/>
<text text-anchor="middle" x="313" y="-62.6" font-family="Times,serif" font-size="14.00">EntityModule</text>
</g>
<!-- ServicesModule -->
<g id="node4" class="node">
<title>ServicesModule</title>
<polygon fill="#8dd3c7" stroke="black" points="574.48,-149.8 571.48,-153.8 550.48,-153.8 547.48,-149.8 467.52,-149.8 467.52,-113.8 574.48,-113.8 574.48,-149.8"/>
<text text-anchor="middle" x="521" y="-127.6" font-family="Times,serif" font-size="14.00">ServicesModule</text>
</g>
<!-- EntityModule&#45;&gt;ServicesModule -->
<g id="edge1" class="edge">
<title>EntityModule&#45;&gt;ServicesModule</title>
<path fill="none" stroke="black" d="M341.19,-85.04C341.19,-100.37 341.19,-119.8 341.19,-119.8 341.19,-119.8 457.05,-119.8 457.05,-119.8"/>
<polygon fill="black" stroke="black" points="457.05,-123.3 467.05,-119.8 457.05,-116.3 457.05,-123.3"/>
</g>
<!-- ModelsModule -->
<g id="node2" class="node">
<title>ModelsModule</title>
<polygon fill="#8dd3c7" stroke="black" points="247.55,-84.8 244.55,-88.8 223.55,-88.8 220.55,-84.8 146.45,-84.8 146.45,-48.8 247.55,-48.8 247.55,-84.8"/>
<text text-anchor="middle" x="197" y="-62.6" font-family="Times,serif" font-size="14.00">ModelsModule</text>
</g>
<!-- ModelsModule&#45;&gt;ServicesModule -->
<g id="edge2" class="edge">
<title>ModelsModule&#45;&gt;ServicesModule</title>
<path fill="none" stroke="black" d="M231.71,-84.82C231.71,-102.17 231.71,-125.8 231.71,-125.8 231.71,-125.8 457.27,-125.8 457.27,-125.8"/>
<polygon fill="black" stroke="black" points="457.27,-129.3 467.27,-125.8 457.27,-122.3 457.27,-129.3"/>
</g>
<!-- UtilitiesModule -->
<g id="node3" class="node">
<title>UtilitiesModule</title>
<polygon fill="#8dd3c7" stroke="black" points="128.16,-84.8 125.16,-88.8 104.16,-88.8 101.16,-84.8 23.84,-84.8 23.84,-48.8 128.16,-48.8 128.16,-84.8"/>
<text text-anchor="middle" x="76" y="-62.6" font-family="Times,serif" font-size="14.00">UtilitiesModule</text>
</g>
<!-- UtilitiesModule&#45;&gt;ServicesModule -->
<g id="edge3" class="edge">
<title>UtilitiesModule&#45;&gt;ServicesModule</title>
<path fill="none" stroke="black" d="M76,-84.91C76,-104.14 76,-131.8 76,-131.8 76,-131.8 457.32,-131.8 457.32,-131.8"/>
<polygon fill="black" stroke="black" points="457.32,-135.3 467.32,-131.8 457.32,-128.3 457.32,-135.3"/>
</g>
<!-- AiStoryService  -->
<g id="node5" class="node">
<title>AiStoryService </title>
<polygon fill="#fb8072" stroke="black" points="819.82,-214.8 714.18,-214.8 714.18,-178.8 819.82,-178.8 819.82,-214.8"/>
<text text-anchor="middle" x="767" y="-192.6" font-family="Times,serif" font-size="14.00">AiStoryService </text>
</g>
<!-- ServicesModule&#45;&gt;AiStoryService  -->
<g id="edge4" class="edge">
<title>ServicesModule&#45;&gt;AiStoryService </title>
<path fill="none" stroke="black" stroke-dasharray="5,2" d="M574.68,-137.8C647.06,-137.8 767,-137.8 767,-137.8 767,-137.8 767,-168.78 767,-168.78"/>
<polygon fill="black" stroke="black" points="763.5,-168.78 767,-178.78 770.5,-168.78 763.5,-168.78"/>
</g>
<!-- AmqpService  -->
<g id="node6" class="node">
<title>AmqpService </title>
<polygon fill="#fb8072" stroke="black" points="696.48,-214.8 599.52,-214.8 599.52,-178.8 696.48,-178.8 696.48,-214.8"/>
<text text-anchor="middle" x="648" y="-192.6" font-family="Times,serif" font-size="14.00">AmqpService </text>
</g>
<!-- ServicesModule&#45;&gt;AmqpService  -->
<g id="edge5" class="edge">
<title>ServicesModule&#45;&gt;AmqpService </title>
<path fill="none" stroke="black" stroke-dasharray="5,2" d="M574.58,-143.8C605.86,-143.8 639.22,-143.8 639.22,-143.8 639.22,-143.8 639.22,-168.56 639.22,-168.56"/>
<polygon fill="black" stroke="black" points="635.72,-168.56 639.22,-178.56 642.72,-168.56 635.72,-168.56"/>
</g>
<!-- CogView2Service  -->
<g id="node7" class="node">
<title>CogView2Service </title>
<polygon fill="#fb8072" stroke="black" points="582.14,-214.8 459.86,-214.8 459.86,-178.8 582.14,-178.8 582.14,-214.8"/>
<text text-anchor="middle" x="521" y="-192.6" font-family="Times,serif" font-size="14.00">CogView2Service </text>
</g>
<!-- ServicesModule&#45;&gt;CogView2Service  -->
<g id="edge6" class="edge">
<title>ServicesModule&#45;&gt;CogView2Service </title>
<path fill="none" stroke="black" stroke-dasharray="5,2" d="M521,-149.91C521,-149.91 521,-168.79 521,-168.79"/>
<polygon fill="black" stroke="black" points="517.5,-168.79 521,-178.79 524.5,-168.79 517.5,-168.79"/>
</g>
<!-- DalleMiniService  -->
<g id="node8" class="node">
<title>DalleMiniService </title>
<polygon fill="#fb8072" stroke="black" points="441.52,-214.8 322.48,-214.8 322.48,-178.8 441.52,-178.8 441.52,-214.8"/>
<text text-anchor="middle" x="382" y="-192.6" font-family="Times,serif" font-size="14.00">DalleMiniService </text>
</g>
<!-- ServicesModule&#45;&gt;DalleMiniService  -->
<g id="edge7" class="edge">
<title>ServicesModule&#45;&gt;DalleMiniService </title>
<path fill="none" stroke="black" stroke-dasharray="5,2" d="M467.25,-143.8C440.12,-143.8 412.87,-143.8 412.87,-143.8 412.87,-143.8 412.87,-168.56 412.87,-168.56"/>
<polygon fill="black" stroke="black" points="409.37,-168.56 412.87,-178.56 416.37,-168.56 409.37,-168.56"/>
</g>
<!-- HelpService  -->
<g id="node9" class="node">
<title>HelpService </title>
<polygon fill="#fb8072" stroke="black" points="304.19,-214.8 215.81,-214.8 215.81,-178.8 304.19,-178.8 304.19,-214.8"/>
<text text-anchor="middle" x="260" y="-192.6" font-family="Times,serif" font-size="14.00">HelpService </text>
</g>
<!-- ServicesModule&#45;&gt;HelpService  -->
<g id="edge8" class="edge">
<title>ServicesModule&#45;&gt;HelpService </title>
<path fill="none" stroke="black" stroke-dasharray="5,2" d="M467.5,-137.8C397.94,-137.8 285.23,-137.8 285.23,-137.8 285.23,-137.8 285.23,-168.78 285.23,-168.78"/>
<polygon fill="black" stroke="black" points="281.73,-168.78 285.23,-178.78 288.73,-168.78 281.73,-168.78"/>
</g>
<!-- AiStoryService -->
<g id="node10" class="node">
<title>AiStoryService</title>
<ellipse fill="#fdb462" stroke="black" cx="1096" cy="-66.8" rx="70.65" ry="18"/>
<text text-anchor="middle" x="1096" y="-62.6" font-family="Times,serif" font-size="14.00">AiStoryService</text>
</g>
<!-- AiStoryService&#45;&gt;ServicesModule -->
<g id="edge9" class="edge">
<title>AiStoryService&#45;&gt;ServicesModule</title>
<path fill="none" stroke="black" d="M1096,-84.91C1096,-104.14 1096,-131.8 1096,-131.8 1096,-131.8 584.58,-131.8 584.58,-131.8"/>
<polygon fill="black" stroke="black" points="584.58,-128.3 574.58,-131.8 584.58,-135.3 584.58,-128.3"/>
</g>
<!-- AmqpService -->
<g id="node11" class="node">
<title>AmqpService</title>
<ellipse fill="#fdb462" stroke="black" cx="943" cy="-66.8" rx="64.27" ry="18"/>
<text text-anchor="middle" x="943" y="-62.6" font-family="Times,serif" font-size="14.00">AmqpService</text>
</g>
<!-- AmqpService&#45;&gt;ServicesModule -->
<g id="edge10" class="edge">
<title>AmqpService&#45;&gt;ServicesModule</title>
<path fill="none" stroke="black" d="M943,-84.82C943,-102.17 943,-125.8 943,-125.8 943,-125.8 584.88,-125.8 584.88,-125.8"/>
<polygon fill="black" stroke="black" points="584.88,-122.3 574.88,-125.8 584.88,-129.3 584.88,-122.3"/>
</g>
<!-- CogView2Service -->
<g id="node12" class="node">
<title>CogView2Service</title>
<ellipse fill="#fdb462" stroke="black" cx="779" cy="-66.8" rx="81.67" ry="18"/>
<text text-anchor="middle" x="779" y="-62.6" font-family="Times,serif" font-size="14.00">CogView2Service</text>
</g>
<!-- CogView2Service&#45;&gt;ServicesModule -->
<g id="edge11" class="edge">
<title>CogView2Service&#45;&gt;ServicesModule</title>
<path fill="none" stroke="black" d="M705.63,-75.08C705.63,-89.99 705.63,-119.8 705.63,-119.8 705.63,-119.8 584.9,-119.8 584.9,-119.8"/>
<polygon fill="black" stroke="black" points="584.9,-116.3 574.9,-119.8 584.9,-123.3 584.9,-116.3"/>
</g>
<!-- DalleMiniService -->
<g id="node13" class="node">
<title>DalleMiniService</title>
<ellipse fill="#fdb462" stroke="black" cx="599" cy="-66.8" rx="79.87" ry="18"/>
<text text-anchor="middle" x="599" y="-62.6" font-family="Times,serif" font-size="14.00">DalleMiniService</text>
</g>
<!-- DalleMiniService&#45;&gt;ServicesModule -->
<g id="edge12" class="edge">
<title>DalleMiniService&#45;&gt;ServicesModule</title>
<path fill="none" stroke="black" d="M546.9,-80.58C546.9,-80.58 546.9,-103.35 546.9,-103.35"/>
<polygon fill="black" stroke="black" points="543.4,-103.35 546.9,-113.35 550.4,-103.35 543.4,-103.35"/>
</g>
<!-- HelpService -->
<g id="node14" class="node">
<title>HelpService</title>
<ellipse fill="#fdb462" stroke="black" cx="443" cy="-66.8" rx="58.53" ry="18"/>
<text text-anchor="middle" x="443" y="-62.6" font-family="Times,serif" font-size="14.00">HelpService</text>
</g>
<!-- HelpService&#45;&gt;ServicesModule -->
<g id="edge13" class="edge">
<title>HelpService&#45;&gt;ServicesModule</title>
<path fill="none" stroke="black" d="M484.64,-79.64C484.64,-79.64 484.64,-103.32 484.64,-103.32"/>
<polygon fill="black" stroke="black" points="481.14,-103.32 484.64,-113.32 488.14,-103.32 481.14,-103.32"/>
</g>
</g>
</svg>
